<svg width="18" height="18" viewBox="0 0 18 18" fill="none" xmlns="http://www.w3.org/2000/svg">
<path d="M13.4999 5.93251C13.4774 5.93251 13.4624 5.93251 13.4399 5.93251H13.4024C11.9849 5.88751 10.9274 4.79251 10.9274 3.44251C10.9274 2.06251 12.0524 0.945007 13.4249 0.945007C14.7974 0.945007 15.9224 2.07001 15.9224 3.44251C15.9149 4.80001 14.8574 5.89501 13.5074 5.94001C13.5074 5.93251 13.5074 5.93251 13.4999 5.93251ZM13.4249 2.06251C12.6674 2.06251 12.0524 2.67751 12.0524 3.43501C12.0524 4.17751 12.6299 4.77751 13.3724 4.80751C13.3799 4.80001 13.4399 4.80001 13.5074 4.80751C14.2349 4.77001 14.7974 4.17001 14.8049 3.43501C14.8049 2.67751 14.1899 2.06251 13.4249 2.06251Z" fill="white"/>
<path d="M13.5075 11.46C13.215 11.46 12.9225 11.4375 12.63 11.385C12.3225 11.3325 12.12 11.04 12.1725 10.7325C12.225 10.425 12.5175 10.2225 12.825 10.275C13.7475 10.4325 14.7225 10.26 15.375 9.82503C15.7275 9.59253 15.915 9.30002 15.915 9.00752C15.915 8.71502 15.72 8.43002 15.375 8.19752C14.7225 7.76252 13.7325 7.59002 12.8025 7.75502C12.495 7.81502 12.2025 7.60502 12.15 7.29752C12.0975 6.99002 12.3 6.69752 12.6075 6.64502C13.83 6.42752 15.0975 6.66002 15.9975 7.26002C16.6575 7.70252 17.04 8.33252 17.04 9.00752C17.04 9.67502 16.665 10.3125 15.9975 10.7625C15.315 11.2125 14.43 11.46 13.5075 11.46Z" fill="white"/>
<path d="M4.47749 5.9325C4.46999 5.9325 4.46249 5.9325 4.46249 5.9325C3.11249 5.8875 2.05499 4.7925 2.04749 3.4425C2.04749 2.0625 3.17249 0.9375 4.54499 0.9375C5.91749 0.9375 7.04249 2.0625 7.04249 3.435C7.04249 4.7925 5.98499 5.8875 4.63499 5.9325L4.47749 5.37L4.52999 5.9325C4.51499 5.9325 4.49249 5.9325 4.47749 5.9325ZM4.55249 4.8075C4.59749 4.8075 4.63499 4.8075 4.67999 4.815C5.34749 4.785 5.93249 4.185 5.93249 3.4425C5.93249 2.685 5.31749 2.07 4.55999 2.07C3.80249 2.07 3.18749 2.685 3.18749 3.4425C3.18749 4.1775 3.75749 4.77 4.48499 4.815C4.49249 4.8075 4.52249 4.8075 4.55249 4.8075Z" fill="white"/>
<path d="M4.47 11.46C3.5475 11.46 2.6625 11.2125 1.98 10.7625C1.32 10.32 0.9375 9.68252 0.9375 9.00752C0.9375 8.34002 1.32 7.70252 1.98 7.26002C2.88 6.66002 4.1475 6.42752 5.37 6.64502C5.6775 6.69752 5.88 6.99002 5.8275 7.29752C5.775 7.60502 5.4825 7.81502 5.175 7.75502C4.245 7.59002 3.2625 7.76252 2.6025 8.19752C2.25 8.43002 2.0625 8.71502 2.0625 9.00752C2.0625 9.30002 2.2575 9.59253 2.6025 9.82503C3.255 10.26 4.23 10.4325 5.1525 10.275C5.46 10.2225 5.7525 10.4325 5.805 10.7325C5.8575 11.04 5.655 11.3325 5.3475 11.385C5.055 11.4375 4.7625 11.46 4.47 11.46Z" fill="white"/>
<path d="M8.99987 11.535C8.97737 11.535 8.96237 11.535 8.93987 11.535H8.90237C7.48487 11.49 6.42737 10.395 6.42737 9.04499C6.42737 7.66499 7.55237 6.54749 8.92487 6.54749C10.2974 6.54749 11.4224 7.67249 11.4224 9.04499C11.4149 10.4025 10.3574 11.4975 9.00737 11.5425C9.00737 11.535 9.00737 11.535 8.99987 11.535ZM8.92487 7.66499C8.16737 7.66499 7.55237 8.27999 7.55237 9.03749C7.55237 9.77999 8.12987 10.38 8.87237 10.41C8.87987 10.4025 8.93987 10.4025 9.00737 10.41C9.73487 10.3725 10.2974 9.77249 10.3049 9.03749C10.3049 8.28749 9.68987 7.66499 8.92487 7.66499Z" fill="white"/>
<path d="M8.99984 17.07C8.09984 17.07 7.19984 16.8375 6.50234 16.365C5.84234 15.9225 5.45984 15.2925 5.45984 14.6175C5.45984 13.95 5.83484 13.305 6.50234 12.8625C7.90484 11.9325 10.1023 11.9325 11.4973 12.8625C12.1573 13.305 12.5398 13.935 12.5398 14.61C12.5398 15.2775 12.1648 15.9225 11.4973 16.365C10.7998 16.83 9.89984 17.07 8.99984 17.07ZM7.12484 13.8075C6.77234 14.04 6.58484 14.3325 6.58484 14.625C6.58484 14.9175 6.77984 15.2025 7.12484 15.435C8.13734 16.1175 9.85484 16.1175 10.8673 15.435C11.2198 15.2025 11.4073 14.91 11.4073 14.6175C11.4073 14.325 11.2123 14.04 10.8673 13.8075C9.86234 13.125 8.14484 13.1325 7.12484 13.8075Z" fill="white"/>
</svg>
