<svg width="22" height="22" viewBox="0 0 22 22" fill="none" xmlns="http://www.w3.org/2000/svg">
<path d="M5.91711 13.8539L8.91011 9.9649L12.3241 12.6449L15.2531 8.8649" stroke="white" stroke-width="1.5" stroke-linecap="round" stroke-linejoin="round"/>
<path fill-rule="evenodd" clip-rule="evenodd" d="M18.6671 1.35C19.7291 1.35 20.5891 2.21 20.5891 3.272C20.5891 4.333 19.7291 5.194 18.6671 5.194C17.6051 5.194 16.7451 4.333 16.7451 3.272C16.7451 2.21 17.6051 1.35 18.6671 1.35Z" stroke="white" stroke-width="1.5" stroke-linecap="round" stroke-linejoin="round"/>
<path d="M19.7555 8.269C19.8885 9.164 19.9495 10.172 19.9495 11.303C19.9495 18.241 17.6375 20.553 10.6995 20.553C3.76252 20.553 1.44952 18.241 1.44952 11.303C1.44952 4.366 3.76252 2.053 10.6995 2.053C11.8095 2.053 12.8005 2.112 13.6825 2.24" stroke="white" stroke-width="1.5" stroke-linecap="round" stroke-linejoin="round"/>
</svg>
