<svg width="20" height="22" viewBox="0 0 20 22" fill="none" xmlns="http://www.w3.org/2000/svg">
<path d="M9.96106 15.5168V12.8888" stroke="white" stroke-width="1.5" stroke-linecap="round" stroke-linejoin="round"/>
<path d="M19.0895 10.4777L19.0605 10.4987C16.6385 11.9907 13.4405 12.8917 9.95646 12.8917C6.47246 12.8917 3.28346 11.9907 0.862458 10.4987L0.832458 10.4777" stroke="white" stroke-width="1.5" stroke-linecap="round" stroke-linejoin="round"/>
<path fill-rule="evenodd" clip-rule="evenodd" d="M0.750183 12.3507C0.750183 6.19871 3.05318 4.14771 9.96118 4.14771C16.8702 4.14771 19.1722 6.19871 19.1722 12.3507C19.1722 18.5027 16.8702 20.5537 9.96118 20.5537C3.05318 20.5537 0.750183 18.5027 0.750183 12.3507Z" stroke="white" stroke-width="1.5" stroke-linecap="round" stroke-linejoin="round"/>
<path d="M13.2238 4.3693V3.7393C13.2238 2.4753 12.3008 1.4503 11.1638 1.4503H8.75879C7.62179 1.4503 6.69879 2.4753 6.69879 3.7393V4.3693" stroke="white" stroke-width="1.5" stroke-linecap="round" stroke-linejoin="round"/>
</svg>
