<svg width="150" height="42" viewBox="0 0 150 42" fill="none" xmlns="http://www.w3.org/2000/svg">
<path d="M33.0485 27.9391L20.8688 21.0376L36.7948 11.8411L37.3377 12.7763L23.051 21.0269L33.5806 26.9985L33.0485 27.9391Z" fill="white"/>
<path d="M24.4055 22.7791L23.8626 21.8385L29.0333 18.8554L36.1552 20.4948L35.924 21.5536L29.2107 20.0003L24.4055 22.7791Z" fill="white"/>
<path d="M26.2975 23.967L25.8729 23.322L29.2322 21.1344L32.511 22.0911L32.2906 22.8329L29.3558 21.9782L26.2975 23.967Z" fill="white"/>
<path d="M32.742 18.5006L28.9581 17.2913L29.1946 16.5549L32.6507 17.6568L35.5854 15.9637L35.9724 16.6355L32.742 18.5006Z" fill="white"/>
<path d="M37.6279 13.1311C38.2276 13.1311 38.7137 12.6449 38.7137 12.0453C38.7137 11.4457 38.2276 10.9596 37.6279 10.9596C37.0283 10.9596 36.5422 11.4457 36.5422 12.0453C36.5422 12.6449 37.0283 13.1311 37.6279 13.1311Z" fill="white"/>
<path d="M33.8708 28.8797C34.4705 28.8797 34.9566 28.3936 34.9566 27.794C34.9566 27.1943 34.4705 26.7082 33.8708 26.7082C33.2712 26.7082 32.7851 27.1943 32.7851 27.794C32.7851 28.3936 33.2712 28.8797 33.8708 28.8797Z" fill="white"/>
<path d="M32.6561 23.3919C33.0954 23.3919 33.4516 23.0357 33.4516 22.5964C33.4516 22.157 33.0954 21.8009 32.6561 21.8009C32.2168 21.8009 31.8606 22.157 31.8606 22.5964C31.8606 23.0357 32.2168 23.3919 32.6561 23.3919Z" fill="white"/>
<path d="M35.779 17.0978C36.2183 17.0978 36.5744 16.7416 36.5744 16.3023C36.5744 15.863 36.2183 15.5068 35.779 15.5068C35.3396 15.5068 34.9835 15.863 34.9835 16.3023C34.9835 16.7416 35.3396 17.0978 35.779 17.0978Z" fill="white"/>
<path d="M35.967 21.8331C36.4746 21.8331 36.8862 21.4216 36.8862 20.914C36.8862 20.4064 36.4746 19.9949 35.967 19.9949C35.4594 19.9949 35.0479 20.4064 35.0479 20.914C35.0479 21.4216 35.4594 21.8331 35.967 21.8331Z" fill="white"/>
<path d="M20.4119 35.9424L20.3044 21.9406L36.2304 31.1372L35.6875 32.0724L21.4009 23.8272L21.4976 35.9317L20.4119 35.9424Z" fill="white"/>
<path d="M20.5624 25.8751L21.1053 24.9345L26.276 27.923L28.4152 34.9104L27.3832 35.2383L25.3676 28.6486L20.5624 25.8751Z" fill="white"/>
<path d="M24.4539 32.7389L23.7336 29.7612L20.4764 28.1111L20.8258 27.4177L24.4001 29.2345L25.2064 32.5508L24.4539 32.7389Z" fill="white"/>
<path d="M31.6671 32.8196L28.4313 30.9545L27.5928 27.0737L28.3453 26.9125L29.1193 30.4546L32.0541 32.1531L31.6671 32.8196Z" fill="white"/>
<path d="M36.4669 33.0453C37.0666 33.0453 37.5527 32.5592 37.5527 31.9596C37.5527 31.3599 37.0666 30.8738 36.4669 30.8738C35.8673 30.8738 35.3812 31.3599 35.3812 31.9596C35.3812 32.5592 35.8673 33.0453 36.4669 33.0453Z" fill="white"/>
<path d="M20.9494 37.6678C21.549 37.6678 22.0351 37.1817 22.0351 36.582C22.0351 35.9824 21.549 35.4963 20.9494 35.4963C20.3498 35.4963 19.8636 35.9824 19.8636 36.582C19.8636 37.1817 20.3498 37.6678 20.9494 37.6678Z" fill="white"/>
<path d="M24.8463 33.7279C25.2856 33.7279 25.6418 33.3718 25.6418 32.9324C25.6418 32.4931 25.2856 32.1369 24.8463 32.1369C24.4069 32.1369 24.0508 32.4931 24.0508 32.9324C24.0508 33.3718 24.4069 33.7279 24.8463 33.7279Z" fill="white"/>
<path d="M31.8606 33.2818C32.2999 33.2818 32.6561 32.9257 32.6561 32.4863C32.6561 32.047 32.2999 31.6908 31.8606 31.6908C31.4212 31.6908 31.0651 32.047 31.0651 32.4863C31.0651 32.9257 31.4212 33.2818 31.8606 33.2818Z" fill="white"/>
<path d="M27.9584 35.8779C28.466 35.8779 28.8775 35.4664 28.8775 34.9588C28.8775 34.4512 28.466 34.0397 27.9584 34.0397C27.4507 34.0397 27.0392 34.4512 27.0392 34.9588C27.0392 35.4664 27.4507 35.8779 27.9584 35.8779Z" fill="white"/>
<path d="M19.2348 40.2962H18.1544V23.8004L7.71622 29.9332L7.16797 28.998L19.2348 21.9084V40.2962Z" fill="white"/>
<path d="M15.9614 24.096H17.0418V30.0676L12.0645 35.4157L11.2583 34.6847L15.9614 29.6483V24.096Z" fill="white"/>
<path d="M12.5 31.4597L11.9625 30.9007L14.1769 28.783L13.9835 25.1387L14.7574 25.0957L14.9671 29.1001L12.5 31.4597Z" fill="white"/>
<path d="M16.2678 37.1894H15.4938V33.4538L18.4339 30.7824L18.9553 31.3576L16.2678 33.7978V37.1894Z" fill="white"/>
<path d="M18.6435 42C19.2432 42 19.7293 41.5139 19.7293 40.9143C19.7293 40.3146 19.2432 39.8285 18.6435 39.8285C18.0439 39.8285 17.5578 40.3146 17.5578 40.9143C17.5578 41.5139 18.0439 42 18.6435 42Z" fill="white"/>
<path d="M6.88311 30.8738C7.48275 30.8738 7.96885 30.3877 7.96885 29.7881C7.96885 29.1884 7.48275 28.7023 6.88311 28.7023C6.28347 28.7023 5.79736 29.1884 5.79736 29.7881C5.79736 30.3877 6.28347 30.8738 6.88311 30.8738Z" fill="white"/>
<path d="M11.9893 32.1316C12.4287 32.1316 12.7848 31.7754 12.7848 31.3361C12.7848 30.8967 12.4287 30.5406 11.9893 30.5406C11.55 30.5406 11.1938 30.8967 11.1938 31.3361C11.1938 31.7754 11.55 32.1316 11.9893 32.1316Z" fill="white"/>
<path d="M15.8808 37.9795C16.3201 37.9795 16.6763 37.6234 16.6763 37.184C16.6763 36.7447 16.3201 36.3885 15.8808 36.3885C15.4414 36.3885 15.0853 36.7447 15.0853 37.184C15.0853 37.6234 15.4414 37.9795 15.8808 37.9795Z" fill="white"/>
<path d="M11.7905 35.9639C12.2981 35.9639 12.7096 35.5524 12.7096 35.0448C12.7096 34.5372 12.2981 34.1257 11.7905 34.1257C11.2828 34.1257 10.8713 34.5372 10.8713 35.0448C10.8713 35.5524 11.2828 35.9639 11.7905 35.9639Z" fill="white"/>
<path d="M2.80886 30.1589L2.26599 29.2183L16.5527 20.9731L6.01772 15.0015L6.55522 14.0555L18.7349 20.9624L2.80886 30.1589Z" fill="white"/>
<path d="M15.1982 19.2209L15.741 20.1615L10.5703 23.1446L3.44849 21.5052L3.67961 20.4464L10.3876 21.9944L15.1982 19.2209Z" fill="white"/>
<path d="M10.3714 20.8656L7.09271 19.9035L7.30771 19.1618L10.2478 20.0218L13.3062 18.0276L13.7308 18.678L10.3714 20.8656Z" fill="white"/>
<path d="M4.01829 26.0363L3.62592 25.3645L6.86165 23.4994L10.6402 24.7087L10.4091 25.4451L6.95302 24.3379L4.01829 26.0363Z" fill="white"/>
<path d="M1.97576 31.0404C2.5754 31.0404 3.0615 30.5543 3.0615 29.9547C3.0615 29.3551 2.5754 28.869 1.97576 28.869C1.37612 28.869 0.890015 29.3551 0.890015 29.9547C0.890015 30.5543 1.37612 31.0404 1.97576 31.0404Z" fill="white"/>
<path d="M5.73284 15.2918C6.33248 15.2918 6.81858 14.8057 6.81858 14.206C6.81858 13.6064 6.33248 13.1203 5.73284 13.1203C5.1332 13.1203 4.64709 13.6064 4.64709 14.206C4.64709 14.8057 5.1332 15.2918 5.73284 15.2918Z" fill="white"/>
<path d="M6.9476 20.1991C7.38694 20.1991 7.74309 19.843 7.74309 19.4036C7.74309 18.9643 7.38694 18.6082 6.9476 18.6082C6.50826 18.6082 6.1521 18.9643 6.1521 19.4036C6.1521 19.843 6.50826 20.1991 6.9476 20.1991Z" fill="white"/>
<path d="M3.82473 26.4932C4.26407 26.4932 4.62023 26.1371 4.62023 25.6977C4.62023 25.2584 4.26407 24.9023 3.82473 24.9023C3.38539 24.9023 3.02924 25.2584 3.02924 25.6977C3.02924 26.1371 3.38539 26.4932 3.82473 26.4932Z" fill="white"/>
<path d="M3.63128 21.9998C4.13889 21.9998 4.5504 21.5883 4.5504 21.0807C4.5504 20.573 4.13889 20.1615 3.63128 20.1615C3.12366 20.1615 2.71216 20.573 2.71216 21.0807C2.71216 21.5883 3.12366 21.9998 3.63128 21.9998Z" fill="white"/>
<path d="M19.2993 20.054L3.37323 10.8628L3.9161 9.92219L18.1974 18.1728L18.106 6.06296L19.1918 6.05759L19.2993 20.054Z" fill="white"/>
<path d="M19.0412 16.1249L18.4984 17.0602L13.3277 14.0771L11.1884 7.08959L12.2204 6.76172L14.2306 13.3461L19.0412 16.1249Z" fill="white"/>
<path d="M18.7725 14.5823L15.2035 12.7656L14.3919 9.44383L15.1444 9.26108L15.87 12.2388L19.1273 13.8889L18.7725 14.5823Z" fill="white"/>
<path d="M11.253 15.0875L10.4844 11.5401L7.54962 9.84695L7.93662 9.17508L11.167 11.0402L12.0108 14.9209L11.253 15.0875Z" fill="white"/>
<path d="M3.1314 11.1262C3.73104 11.1262 4.21714 10.6401 4.21714 10.0405C4.21714 9.44082 3.73104 8.95471 3.1314 8.95471C2.53176 8.95471 2.04565 9.44082 2.04565 10.0405C2.04565 10.6401 2.53176 11.1262 3.1314 11.1262Z" fill="white"/>
<path d="M18.6489 6.5037C19.2486 6.5037 19.7347 6.0176 19.7347 5.41796C19.7347 4.81832 19.2486 4.33221 18.6489 4.33221C18.0493 4.33221 17.5632 4.81832 17.5632 5.41796C17.5632 6.0176 18.0493 6.5037 18.6489 6.5037Z" fill="white"/>
<path d="M14.7574 9.86309C15.1967 9.86309 15.5529 9.50693 15.5529 9.06759C15.5529 8.62825 15.1967 8.27209 14.7574 8.27209C14.3181 8.27209 13.9619 8.62825 13.9619 9.06759C13.9619 9.50693 14.3181 9.86309 14.7574 9.86309Z" fill="white"/>
<path d="M7.74313 10.3092C8.18247 10.3092 8.53862 9.95304 8.53862 9.5137C8.53862 9.07436 8.18247 8.7182 7.74313 8.7182C7.30379 8.7182 6.94763 9.07436 6.94763 9.5137C6.94763 9.95304 7.30379 10.3092 7.74313 10.3092Z" fill="white"/>
<path d="M11.6453 7.96034C12.1529 7.96034 12.5644 7.54884 12.5644 7.04122C12.5644 6.5336 12.1529 6.1221 11.6453 6.1221C11.1377 6.1221 10.7262 6.5336 10.7262 7.04122C10.7262 7.54884 11.1377 7.96034 11.6453 7.96034Z" fill="white"/>
<path d="M20.3635 20.0917V1.70389H21.4493V18.1997L31.8875 12.0668L32.4357 12.9967L20.3635 20.0917Z" fill="white"/>
<path d="M23.6423 17.904H22.5565V11.9324L27.5391 6.58435L28.34 7.31535L23.6423 12.3517V17.904Z" fill="white"/>
<path d="M24.8462 16.8989L24.6312 12.8999L27.1037 10.5403L27.6358 11.0993L25.4267 13.2117L25.6202 16.8613L24.8462 16.8989Z" fill="white"/>
<path d="M21.1697 11.2122L20.6484 10.6424L23.3305 8.20221V4.81061H24.1099V8.54621L21.1697 11.2122Z" fill="white"/>
<path d="M20.9601 2.17149C21.5598 2.17149 22.0459 1.68538 22.0459 1.08574C22.0459 0.486104 21.5598 0 20.9601 0C20.3605 0 19.8744 0.486104 19.8744 1.08574C19.8744 1.68538 20.3605 2.17149 20.9601 2.17149Z" fill="white"/>
<path d="M32.7206 13.2977C33.3202 13.2977 33.8063 12.8116 33.8063 12.2119C33.8063 11.6123 33.3202 11.1262 32.7206 11.1262C32.1209 11.1262 31.6348 11.6123 31.6348 12.2119C31.6348 12.8116 32.1209 13.2977 32.7206 13.2977Z" fill="white"/>
<path d="M27.609 11.4594C28.0483 11.4594 28.4045 11.1033 28.4045 10.6639C28.4045 10.2246 28.0483 9.86844 27.609 9.86844C27.1696 9.86844 26.8135 10.2246 26.8135 10.6639C26.8135 11.1033 27.1696 11.4594 27.609 11.4594Z" fill="white"/>
<path d="M23.7175 5.6061C24.1568 5.6061 24.513 5.24994 24.513 4.8106C24.513 4.37126 24.1568 4.01511 23.7175 4.01511C23.2782 4.01511 22.922 4.37126 22.922 4.8106C22.922 5.24994 23.2782 5.6061 23.7175 5.6061Z" fill="white"/>
<path d="M27.8132 7.87434C28.3208 7.87434 28.7323 7.46284 28.7323 6.95522C28.7323 6.44761 28.3208 6.0361 27.8132 6.0361C27.3056 6.0361 26.8941 6.44761 26.8941 6.95522C26.8941 7.46284 27.3056 7.87434 27.8132 7.87434Z" fill="white"/>
<path d="M43.5565 27.0146C42.9029 27.0258 42.2502 26.9626 41.6108 26.8265C41.1772 26.6972 40.7735 26.4835 40.4229 26.1976C40.0983 25.8884 39.861 25.4991 39.7349 25.0688C39.592 24.5181 39.5268 23.95 39.5414 23.3811V20.054C39.5257 19.7825 39.542 19.5101 39.5898 19.2424H41.9709C41.9709 19.3069 41.9709 19.366 41.9064 19.366C41.9064 19.6186 41.8473 19.8659 41.8473 20.183V23.3166C41.8473 23.6284 41.9118 23.8541 41.9118 24.1282C41.9759 24.3182 42.0825 24.491 42.2236 24.6335C42.3643 24.7819 42.5568 24.8705 42.7611 24.8807C43.0445 24.9696 43.3402 25.0131 43.6372 25.0097H50.8235V27.02L43.5565 27.0146ZM39.7296 18.4899V18.4254C39.8292 17.9842 40.0732 17.5889 40.4229 17.302C40.74 16.9669 41.1565 16.7426 41.6108 16.6624C42.2501 16.5259 42.9029 16.4628 43.5565 16.4743H50.8235V18.4899H39.7296ZM60.5522 27.0092C61.2043 27.0269 61.856 26.9638 62.4926 26.8211C62.9492 26.6779 63.3822 26.4678 63.7772 26.1976C64.0786 25.8812 64.2933 25.4924 64.4007 25.0688C64.5412 24.5158 64.6045 23.9461 64.5888 23.3757V20.054C64.5971 19.5106 64.5339 18.9684 64.4007 18.4415C64.3236 18.0066 64.1043 17.6096 63.7772 17.3128C63.4164 16.9858 62.9747 16.7612 62.4979 16.6624C61.8609 16.5227 61.2095 16.4595 60.5576 16.4743H56.607C55.9549 16.4568 55.3032 16.52 54.6666 16.6624C54.2005 16.7533 53.7677 16.9687 53.4142 17.2859C53.0835 17.5806 52.8619 17.9783 52.7854 18.4146L52.7262 18.4791H60.4931C60.8102 18.4791 61.1219 18.5383 61.3101 18.5383C61.5134 18.5963 61.6985 18.7054 61.8476 18.8554C61.9874 18.9957 62.0955 19.1643 62.1647 19.3499C62.2208 19.6165 62.2425 19.8893 62.2292 20.1615V23.2951C62.2425 23.5691 62.2208 23.8436 62.1647 24.1121C62.1124 24.3059 62.0039 24.4798 61.8529 24.612C61.7046 24.7629 61.5193 24.8722 61.3154 24.9291C61.1273 24.9291 60.8156 24.9882 60.4984 24.9882H56.6768C56.3006 24.9882 56.0533 24.9291 55.8007 24.9291C55.5868 24.8779 55.3913 24.7681 55.2364 24.612C55.1039 24.4745 55.0159 24.3003 54.9837 24.1121C54.9321 23.843 54.9122 23.5688 54.9246 23.2951V20.183C54.9124 19.9093 54.9322 19.6351 54.9837 19.366V19.2424H52.5972V23.3757C52.5839 23.946 52.6472 24.5154 52.7854 25.0688C52.8922 25.4938 53.1091 25.8831 53.4142 26.1976C53.7984 26.4678 54.2205 26.6797 54.6666 26.8265C55.3039 26.964 55.9552 27.0253 56.607 27.0092H60.5522ZM74.3444 27.0092C74.9981 27.0239 75.6513 26.9607 76.2901 26.8211C76.7372 26.6765 77.1595 26.4644 77.5425 26.1922C77.8461 25.8774 78.0612 25.4881 78.166 25.0635C78.3089 24.5127 78.3741 23.9446 78.3595 23.3757V20.054C78.3694 19.5102 78.3043 18.9675 78.166 18.4415C78.0917 18.0056 77.8719 17.6077 77.5425 17.3128C77.1913 16.987 76.7586 16.7623 76.2901 16.6624C75.6532 16.5224 75.0017 16.4592 74.3497 16.4743H70.3991C69.7472 16.4595 69.0958 16.5227 68.4588 16.6624C67.993 16.7576 67.5609 16.9746 67.2064 17.2913C66.8793 17.5881 66.66 17.9851 66.5829 18.42L66.5184 18.4791H74.2906C74.6024 18.4791 74.9141 18.5436 75.1022 18.5436C75.3148 18.5953 75.5097 18.703 75.6666 18.8554C75.8059 18.9992 75.9123 19.1716 75.9784 19.3606C76.0345 19.6273 76.0561 19.9001 76.0429 20.1722V23.3059C76.0559 23.5798 76.0342 23.8543 75.9784 24.1229C75.9283 24.3176 75.8194 24.4921 75.6666 24.6227C75.5112 24.7771 75.3157 24.8851 75.1022 24.9345C74.9141 24.9345 74.6024 24.999 74.2906 24.999H70.4636C70.0874 24.999 69.8401 24.9345 69.5875 24.9345C69.3846 24.8782 69.1996 24.7709 69.05 24.6227C68.9184 24.4853 68.8321 24.3108 68.8028 24.1229C68.7466 23.8544 68.7249 23.5798 68.7383 23.3059V20.1776C68.7147 19.9012 68.7274 19.623 68.7759 19.3499V19.2209H66.3894V23.3596C66.3752 23.9302 66.4403 24.5 66.5829 25.0527C66.6903 25.4763 66.905 25.8651 67.2064 26.1815C67.5931 26.4493 68.0168 26.6594 68.4641 26.805C69.1011 26.945 69.7525 27.0081 70.4045 26.9931L74.3444 27.0092ZM84.9438 27.0092C84.2921 27.0173 83.6415 26.9542 83.0034 26.8211C82.5739 26.6784 82.1707 26.4659 81.8102 26.1922C81.4875 25.8815 81.2505 25.4927 81.1222 25.0635V25.0043H91.4045V27.0092H84.9438ZM80.9986 24.2519C80.9986 23.9401 80.9341 23.7144 80.9341 23.3757V16.4796H83.2507V23.3112C83.2567 23.567 83.3001 23.8205 83.3797 24.0637C83.3761 24.0975 83.3795 24.1316 83.3897 24.1639C83.3999 24.1963 83.4166 24.2262 83.4388 24.2519H80.9986ZM100.252 19.4574L97.2471 25.7998L96.1721 23.1715L98.8596 17.216C98.9566 16.9434 99.1302 16.7045 99.3595 16.528C99.6144 16.3426 99.9265 16.2532 100.241 16.2754C100.553 16.2383 100.868 16.31 101.134 16.4784C101.399 16.6468 101.598 16.9017 101.698 17.1999L104.089 22.6501L105.772 26.8748C105.707 26.8748 105.707 26.9393 105.648 27.0038C105.393 27.1873 105.08 27.2749 104.767 27.2511C104.454 27.2848 104.14 27.1962 103.891 27.0038C103.648 26.8048 103.463 26.5452 103.353 26.2513L100.252 19.4574ZM105.089 23.15L107.911 16.5065H110.48C110.285 16.8916 110.118 17.2904 109.98 17.6998C109.728 18.1996 109.481 18.7748 109.163 19.3929C108.846 20.011 108.626 20.7097 108.287 21.3977C108.034 22.0615 107.742 22.7094 107.411 23.3381C107.196 23.9385 106.944 24.5254 106.659 25.0957C106.557 25.4183 106.431 25.7328 106.282 26.0363L105.089 23.15ZM96.758 26.6652C96.6935 26.7888 96.5699 26.8533 96.4462 26.977C96.191 27.1613 95.8786 27.2489 95.5647 27.2242C95.2326 27.2474 94.902 27.1605 94.6241 26.977C94.4099 26.7612 94.2401 26.5055 94.1242 26.2245L90.05 16.5119H92.6838L95.0057 22.2739L95.7529 24.0906L96.758 26.6652ZM116.366 27.0038C115.714 27.0153 115.063 26.9522 114.425 26.8157C113.996 26.6706 113.592 26.4603 113.227 26.1922C112.907 25.8791 112.671 25.4911 112.539 25.0635C112.401 24.51 112.338 23.9406 112.351 23.3704V20.0486C112.34 19.7747 112.362 19.5005 112.415 19.2316H114.796L114.732 19.2961C114.732 19.4843 114.667 19.796 114.667 20.0486V20.8011H123.633V22.6179H114.662V23.3704C114.662 23.6821 114.726 23.9992 114.726 24.182C114.771 24.3676 114.857 24.5405 114.979 24.6872C115.141 24.8194 115.336 24.9049 115.543 24.9345C115.732 24.9345 116.043 24.999 116.355 24.999H123.692V27.0038H116.366ZM112.544 18.4791V18.42C112.643 17.9784 112.885 17.5817 113.232 17.2913C113.561 16.9768 113.97 16.7592 114.415 16.6624C115.052 16.5259 115.703 16.4628 116.355 16.4743H123.627V18.4791H112.534H112.544ZM130.314 27.0038C129.66 27.0119 129.008 26.9488 128.368 26.8157C127.941 26.6719 127.539 26.4595 127.18 26.1868C126.858 25.8761 126.621 25.4873 126.492 25.0581V24.999H136.769V27.0038H130.314ZM126.363 24.2465C126.363 23.9347 126.304 23.709 126.304 23.3704V16.4743H128.621V23.3059C128.628 23.5611 128.669 23.8143 128.744 24.0584C128.74 24.0925 128.744 24.1272 128.755 24.1597C128.767 24.1923 128.785 24.2219 128.809 24.2465H126.363ZM143.273 27.0038C142.619 27.0119 141.967 26.9488 141.327 26.8157C140.9 26.6719 140.499 26.4595 140.139 26.1868C139.815 25.8764 139.576 25.4877 139.446 25.0581V24.999H149.728V27.0092L143.273 27.0038ZM139.322 24.2465C139.322 23.9294 139.258 23.709 139.258 23.365V16.4743H141.58V23.3059C141.585 23.5613 141.626 23.8148 141.703 24.0584C141.7 24.0925 141.703 24.1272 141.714 24.1597C141.726 24.1923 141.744 24.2219 141.768 24.2465H139.322Z" fill="white"/>
</svg>
