<svg width="107" height="107" viewBox="0 0 107 107" fill="none" xmlns="http://www.w3.org/2000/svg">
<g filter="url(#filter0_d_351_3312)">
<g filter="url(#filter1_d_351_3312)">
<rect x="33.9485" y="20" width="39.5928" height="39.8028" rx="13.2676" fill="url(#paint0_linear_351_3312)"/>
</g>
<g clip-path="url(#clip0_351_3312)">
<path d="M58.1228 39.0037H54.7594V35.5002C54.7594 34.9985 54.3553 34.5922 53.8562 34.5922C53.3572 34.5922 52.953 34.9985 52.953 35.5002V39.0037H49.3649C48.87 39.0037 48.4658 39.41 48.4658 39.9117C48.4658 40.4134 48.87 40.8197 49.369 40.8197H52.9571V44.3024C52.9571 44.8041 53.3613 45.2104 53.8603 45.2104C54.3594 45.2104 54.7636 44.8041 54.7636 44.3024V40.8197H58.1269C58.6259 40.8197 59.0301 40.4134 59.0301 39.9117C59.0239 39.41 58.6218 39.0037 58.1228 39.0037Z" fill="white"/>
</g>
</g>
<defs>
<filter id="filter0_d_351_3312" x="17.364" y="14.0296" width="72.7617" height="72.9717" filterUnits="userSpaceOnUse" color-interpolation-filters="sRGB">
<feFlood flood-opacity="0" result="BackgroundImageFix"/>
<feColorMatrix in="SourceAlpha" type="matrix" values="0 0 0 0 0 0 0 0 0 0 0 0 0 0 0 0 0 0 127 0" result="hardAlpha"/>
<feOffset dy="10.6141"/>
<feGaussianBlur stdDeviation="8.29224"/>
<feColorMatrix type="matrix" values="0 0 0 0 0.305882 0 0 0 0 0.490196 0 0 0 0 0.588235 0 0 0 0.1 0"/>
<feBlend mode="normal" in2="BackgroundImageFix" result="effect1_dropShadow_351_3312"/>
<feBlend mode="normal" in="SourceGraphic" in2="effect1_dropShadow_351_3312" result="shape"/>
</filter>
<filter id="filter1_d_351_3312" x="0.779526" y="0.0986242" width="105.931" height="106.141" filterUnits="userSpaceOnUse" color-interpolation-filters="sRGB">
<feFlood flood-opacity="0" result="BackgroundImageFix"/>
<feColorMatrix in="SourceAlpha" type="matrix" values="0 0 0 0 0 0 0 0 0 0 0 0 0 0 0 0 0 0 127 0" result="hardAlpha"/>
<feOffset dy="13.2676"/>
<feGaussianBlur stdDeviation="16.5845"/>
<feColorMatrix type="matrix" values="0 0 0 0 0.74902 0 0 0 0 0.0823529 0 0 0 0 0.423529 0 0 0 0.05 0"/>
<feBlend mode="normal" in2="BackgroundImageFix" result="effect1_dropShadow_351_3312"/>
<feBlend mode="normal" in="SourceGraphic" in2="effect1_dropShadow_351_3312" result="shape"/>
</filter>
<linearGradient id="paint0_linear_351_3312" x1="73.5413" y1="37.2749" x2="33.9984" y2="35.6888" gradientUnits="userSpaceOnUse">
<stop stop-color="#1636FF"/>
<stop offset="1" stop-color="#0FABFF"/>
</linearGradient>
<clipPath id="clip0_351_3312">
<rect width="10.5581" height="10.6141" fill="white" transform="translate(48.4658 34.5945)"/>
</clipPath>
</defs>
</svg>
