<svg width="33" height="33" viewBox="0 0 33 33" fill="none" xmlns="http://www.w3.org/2000/svg">
<rect x="1.01614" y="0.870874" width="31.1788" height="31.1788" rx="2.98521" stroke="#E3EBF1" stroke-width="0.663379"/>
<path d="M25.4267 20.6802C25.397 20.5541 25.3399 20.436 25.2595 20.3344C25.1791 20.2328 25.0774 20.15 24.9615 20.0921L21.4235 18.323C21.2574 18.2402 21.0695 18.2116 20.8863 18.2415C20.7031 18.2713 20.5339 18.358 20.4027 18.4893L18.9212 19.9709C16.7922 19.6286 13.4373 16.2745 13.0958 14.1455L14.5774 12.6631C14.7087 12.5319 14.7954 12.3628 14.8252 12.1796C14.8551 11.9964 14.8266 11.8084 14.7437 11.6424L12.9747 8.10435C12.9167 7.98838 12.8341 7.88655 12.7324 7.80608C12.6308 7.7256 12.5127 7.66845 12.3866 7.63866C12.2604 7.60887 12.1293 7.60718 12.0024 7.6337C11.8755 7.66021 11.756 7.7143 11.6523 7.79212L8.1143 10.4456C8.00445 10.528 7.91529 10.6349 7.85388 10.7577C7.79247 10.8805 7.7605 11.0159 7.7605 11.1532C7.7605 19.618 13.4479 25.3053 21.9126 25.3053C22.0499 25.3053 22.1853 25.2734 22.3082 25.2119C22.431 25.1505 22.5378 25.0614 22.6202 24.9515L25.2737 21.4135C25.3513 21.3099 25.4052 21.1906 25.4317 21.0639C25.4581 20.9372 25.4564 20.8062 25.4267 20.6802ZM21.4703 23.5301C14.4553 23.3417 9.7241 18.6105 9.5357 11.5955L11.8664 9.84329L12.8756 11.8608L11.5577 13.1788C11.4752 13.2612 11.4099 13.3591 11.3654 13.4669C11.3209 13.5747 11.2982 13.6902 11.2985 13.8068C11.2985 16.9317 16.1341 21.7673 19.2591 21.7673C19.4936 21.7673 19.7186 21.674 19.8844 21.5081L21.2023 20.1902L23.2225 21.2003L21.4703 23.5301Z" fill="url(#paint0_linear_351_2922)"/>
<defs>
<linearGradient id="paint0_linear_351_2922" x1="25.4503" y1="15.2928" x2="7.7831" y2="14.5804" gradientUnits="userSpaceOnUse">
<stop stop-color="#1636FF"/>
<stop offset="1" stop-color="#0FABFF"/>
</linearGradient>
</defs>
</svg>
