<svg width="33" height="33" viewBox="0 0 33 33" fill="none" xmlns="http://www.w3.org/2000/svg">
<rect x="0.858301" y="0.870935" width="31.1788" height="31.1788" rx="2.98521" stroke="#E3EBF1" stroke-width="0.663379"/>
<path d="M23.5 11.6308L21.8334 13.2975V9.33333H14.3334V13.5H10.1667V22.6667H21.8334V20.3692L23.5 18.7025V23.5067C23.4998 23.726 23.4125 23.9363 23.2574 24.0913C23.1022 24.2463 22.8918 24.3333 22.6725 24.3333H9.32752C9.21808 24.3326 9.10987 24.3103 9.00906 24.2677C8.90825 24.2251 8.81681 24.1631 8.73997 24.0851C8.66313 24.0072 8.60239 23.9149 8.56122 23.8135C8.52005 23.7121 8.49925 23.6036 8.50002 23.4942V12.6667L13.5025 7.66667H22.665C23.125 7.66667 23.5 8.04583 23.5 8.49333V11.6308ZM24.1484 13.3392L25.3267 14.5183L18.845 21L17.665 20.9983L17.6667 19.8217L24.1484 13.3392Z" fill="url(#paint0_linear_351_2927)"/>
<defs>
<linearGradient id="paint0_linear_351_2927" x1="25.3267" y1="14.9002" x2="8.52203" y2="14.2161" gradientUnits="userSpaceOnUse">
<stop stop-color="#1636FF"/>
<stop offset="1" stop-color="#0FABFF"/>
</linearGradient>
</defs>
</svg>
