<svg width="32" height="32" viewBox="0 0 32 32" fill="none" xmlns="http://www.w3.org/2000/svg">
<circle cx="16" cy="16" r="15.5" stroke="#E2E2E2"/>
<path d="M23.5 12.4375H19C18.6925 12.4375 18.4375 12.1825 18.4375 11.875C18.4375 11.5675 18.6925 11.3125 19 11.3125H23.5C23.8075 11.3125 24.0625 11.5675 24.0625 11.875C24.0625 12.1825 23.8075 12.4375 23.5 12.4375Z" fill="#939393"/>
<path d="M11.5 12.4375H8.5C8.1925 12.4375 7.9375 12.1825 7.9375 11.875C7.9375 11.5675 8.1925 11.3125 8.5 11.3125H11.5C11.8075 11.3125 12.0625 11.5675 12.0625 11.875C12.0625 12.1825 11.8075 12.4375 11.5 12.4375Z" fill="#939393"/>
<path d="M14.5 15.0625C12.745 15.0625 11.3125 13.63 11.3125 11.875C11.3125 10.12 12.745 8.6875 14.5 8.6875C16.255 8.6875 17.6875 10.12 17.6875 11.875C17.6875 13.63 16.255 15.0625 14.5 15.0625ZM14.5 9.8125C13.36 9.8125 12.4375 10.735 12.4375 11.875C12.4375 13.015 13.36 13.9375 14.5 13.9375C15.64 13.9375 16.5625 13.015 16.5625 11.875C16.5625 10.735 15.64 9.8125 14.5 9.8125Z" fill="#939393"/>
<path d="M23.5 20.6875H20.5C20.1925 20.6875 19.9375 20.4325 19.9375 20.125C19.9375 19.8175 20.1925 19.5625 20.5 19.5625H23.5C23.8075 19.5625 24.0625 19.8175 24.0625 20.125C24.0625 20.4325 23.8075 20.6875 23.5 20.6875Z" fill="#939393"/>
<path d="M13 20.6875H8.5C8.1925 20.6875 7.9375 20.4325 7.9375 20.125C7.9375 19.8175 8.1925 19.5625 8.5 19.5625H13C13.3075 19.5625 13.5625 19.8175 13.5625 20.125C13.5625 20.4325 13.3075 20.6875 13 20.6875Z" fill="#939393"/>
<path d="M17.5 23.3125C15.745 23.3125 14.3125 21.88 14.3125 20.125C14.3125 18.37 15.745 16.9375 17.5 16.9375C19.255 16.9375 20.6875 18.37 20.6875 20.125C20.6875 21.88 19.255 23.3125 17.5 23.3125ZM17.5 18.0625C16.36 18.0625 15.4375 18.985 15.4375 20.125C15.4375 21.265 16.36 22.1875 17.5 22.1875C18.64 22.1875 19.5625 21.265 19.5625 20.125C19.5625 18.985 18.64 18.0625 17.5 18.0625Z" fill="#939393"/>
</svg>
