<svg width="107" height="107" viewBox="0 0 107 107" fill="none" xmlns="http://www.w3.org/2000/svg">
<g filter="url(#filter0_d_351_3320)">
<g filter="url(#filter1_d_351_3320)">
<rect x="33.4072" y="20" width="39.5928" height="39.8028" rx="13.2676" fill="white"/>
</g>
<path d="M50.5642 31.941H47.0448C46.5781 31.941 46.1306 32.1274 45.8006 32.4591C45.4706 32.7909 45.2852 33.2408 45.2852 33.71V37.248C45.2852 37.7172 45.4706 38.1671 45.8006 38.4989C46.1306 38.8306 46.5781 39.017 47.0448 39.017H50.5642C51.0309 39.017 51.4785 38.8306 51.8085 38.4989C52.1385 38.1671 52.3239 37.7172 52.3239 37.248V33.71C52.3239 33.2408 52.1385 32.7909 51.8085 32.4591C51.4785 32.1274 51.0309 31.941 50.5642 31.941ZM47.0448 37.248V33.71H50.5642V37.248H47.0448ZM59.3626 31.941H55.8432C55.3765 31.941 54.929 32.1274 54.599 32.4591C54.269 32.7909 54.0836 33.2408 54.0836 33.71V37.248C54.0836 37.7172 54.269 38.1671 54.599 38.4989C54.929 38.8306 55.3765 39.017 55.8432 39.017H59.3626C59.8293 39.017 60.2769 38.8306 60.6069 38.4989C60.9369 38.1671 61.1223 37.7172 61.1223 37.248V33.71C61.1223 33.2408 60.9369 32.7909 60.6069 32.4591C60.2769 32.1274 59.8293 31.941 59.3626 31.941ZM55.8432 37.248V33.71H59.3626V37.248H55.8432ZM50.5642 40.786H47.0448C46.5781 40.786 46.1306 40.9724 45.8006 41.3042C45.4706 41.6359 45.2852 42.0859 45.2852 42.555V46.0931C45.2852 46.5622 45.4706 47.0122 45.8006 47.3439C46.1306 47.6757 46.5781 47.8621 47.0448 47.8621H50.5642C51.0309 47.8621 51.4785 47.6757 51.8085 47.3439C52.1385 47.0122 52.3239 46.5622 52.3239 46.0931V42.555C52.3239 42.0859 52.1385 41.6359 51.8085 41.3042C51.4785 40.9724 51.0309 40.786 50.5642 40.786ZM47.0448 46.0931V42.555H50.5642V46.0931H47.0448ZM59.3626 40.786H55.8432C55.3765 40.786 54.929 40.9724 54.599 41.3042C54.269 41.6359 54.0836 42.0859 54.0836 42.555V46.0931C54.0836 46.5622 54.269 47.0122 54.599 47.3439C54.929 47.6757 55.3765 47.8621 55.8432 47.8621H59.3626C59.8293 47.8621 60.2769 47.6757 60.6069 47.3439C60.9369 47.0122 61.1223 46.5622 61.1223 46.0931V42.555C61.1223 42.0859 60.9369 41.6359 60.6069 41.3042C60.2769 40.9724 59.8293 40.786 59.3626 40.786ZM55.8432 46.0931V42.555H59.3626V46.0931H55.8432Z" fill="url(#paint0_linear_351_3320)"/>
</g>
<defs>
<filter id="filter0_d_351_3320" x="16.8227" y="14.0296" width="72.7617" height="72.9717" filterUnits="userSpaceOnUse" color-interpolation-filters="sRGB">
<feFlood flood-opacity="0" result="BackgroundImageFix"/>
<feColorMatrix in="SourceAlpha" type="matrix" values="0 0 0 0 0 0 0 0 0 0 0 0 0 0 0 0 0 0 127 0" result="hardAlpha"/>
<feOffset dy="10.6141"/>
<feGaussianBlur stdDeviation="8.29224"/>
<feColorMatrix type="matrix" values="0 0 0 0 0.305882 0 0 0 0 0.490196 0 0 0 0 0.588235 0 0 0 0.1 0"/>
<feBlend mode="normal" in2="BackgroundImageFix" result="effect1_dropShadow_351_3320"/>
<feBlend mode="normal" in="SourceGraphic" in2="effect1_dropShadow_351_3320" result="shape"/>
</filter>
<filter id="filter1_d_351_3320" x="0.238266" y="0.0986242" width="105.931" height="106.141" filterUnits="userSpaceOnUse" color-interpolation-filters="sRGB">
<feFlood flood-opacity="0" result="BackgroundImageFix"/>
<feColorMatrix in="SourceAlpha" type="matrix" values="0 0 0 0 0 0 0 0 0 0 0 0 0 0 0 0 0 0 127 0" result="hardAlpha"/>
<feOffset dy="13.2676"/>
<feGaussianBlur stdDeviation="16.5845"/>
<feColorMatrix type="matrix" values="0 0 0 0 0.74902 0 0 0 0 0.0823529 0 0 0 0 0.423529 0 0 0 0.05 0"/>
<feBlend mode="normal" in2="BackgroundImageFix" result="effect1_dropShadow_351_3320"/>
<feBlend mode="normal" in="SourceGraphic" in2="effect1_dropShadow_351_3320" result="shape"/>
</filter>
<linearGradient id="paint0_linear_351_3320" x1="61.1223" y1="38.8509" x2="45.3051" y2="38.2165" gradientUnits="userSpaceOnUse">
<stop stop-color="#1636FF"/>
<stop offset="1" stop-color="#0FABFF"/>
</linearGradient>
</defs>
</svg>
