<svg width="107" height="107" viewBox="0 0 107 107" fill="none" xmlns="http://www.w3.org/2000/svg">
<g filter="url(#filter0_d_351_3316)">
<g filter="url(#filter1_d_351_3316)">
<rect x="33.6772" y="20" width="39.5928" height="39.8028" rx="13.2676" fill="white"/>
</g>
<g clip-path="url(#clip0_351_3316)">
<path d="M51.5151 38.1934C51.0907 38.1934 50.6663 38.1934 50.2433 38.1934C49.5719 38.1934 48.9018 38.1934 48.2304 38.1934C48.0667 38.1934 47.8961 38.2071 47.7323 38.1893C47.7801 38.1962 47.8292 38.203 47.877 38.2085C47.8333 38.2017 47.7937 38.1921 47.7528 38.1756C47.7965 38.1934 47.8401 38.2126 47.8838 38.2305C47.8456 38.2126 47.8101 38.1921 47.776 38.166C47.8128 38.1948 47.8497 38.2236 47.8865 38.2524C47.8592 38.2291 47.8347 38.2044 47.8115 38.177C47.8401 38.214 47.8688 38.251 47.8975 38.2881C47.8715 38.2538 47.8511 38.2195 47.8333 38.1797C47.8511 38.2236 47.8702 38.2675 47.8879 38.3114C47.8715 38.2702 47.8606 38.2305 47.8551 38.1866C47.862 38.2346 47.8688 38.284 47.8743 38.332C47.8606 38.1962 47.8702 38.0562 47.8702 37.9204C47.8702 37.6186 47.8702 37.3168 47.8702 37.0164C47.8702 36.3359 47.8702 35.6541 47.8702 34.9736C47.8702 34.809 47.8565 34.6375 47.8743 34.4729C47.8674 34.5209 47.8606 34.5703 47.8551 34.6183C47.862 34.5744 47.8715 34.5346 47.8879 34.4935C47.8702 34.5374 47.8511 34.5813 47.8333 34.6252C47.8511 34.5868 47.8715 34.5511 47.8975 34.5168C47.8688 34.5538 47.8401 34.5909 47.8115 34.6279C47.8347 34.6005 47.8592 34.5758 47.8865 34.5525C47.8497 34.5813 47.8128 34.6101 47.776 34.6389C47.8101 34.6128 47.8442 34.5922 47.8838 34.5744C47.8401 34.5922 47.7965 34.6115 47.7528 34.6293C47.7937 34.6128 47.8333 34.6018 47.877 34.5964C47.8292 34.6032 47.7801 34.6101 47.7323 34.6156C47.8674 34.6018 48.0066 34.6115 48.1417 34.6115C48.4419 34.6115 48.7422 34.6115 49.041 34.6115C49.7179 34.6115 50.3961 34.6115 51.073 34.6115C51.2367 34.6115 51.4073 34.5977 51.5711 34.6156C51.5233 34.6087 51.4742 34.6018 51.4264 34.5964C51.4701 34.6032 51.5097 34.6128 51.5506 34.6293C51.5069 34.6115 51.4633 34.5922 51.4196 34.5744C51.4578 34.5922 51.4933 34.6128 51.5274 34.6389C51.4906 34.6101 51.4537 34.5813 51.4169 34.5525C51.4442 34.5758 51.4687 34.6005 51.4919 34.6279C51.4633 34.5909 51.4346 34.5538 51.4059 34.5168C51.4319 34.5511 51.4523 34.5854 51.4701 34.6252C51.4523 34.5813 51.4332 34.5374 51.4155 34.4935C51.4319 34.5346 51.4428 34.5744 51.4483 34.6183C51.4414 34.5703 51.4346 34.5209 51.4291 34.4729C51.4428 34.6087 51.4332 34.7486 51.4332 34.8845C51.4332 35.1863 51.4332 35.4881 51.4332 35.7885C51.4332 36.469 51.4332 37.1508 51.4332 37.8312C51.4332 37.9959 51.4469 38.1674 51.4291 38.332C51.436 38.284 51.4428 38.2346 51.4483 38.1866C51.4414 38.2305 51.4319 38.2702 51.4155 38.3114C51.4332 38.2675 51.4523 38.2236 51.4701 38.1797C51.4523 38.2181 51.4319 38.2538 51.4059 38.2881C51.4346 38.251 51.4633 38.214 51.4919 38.177C51.4687 38.2044 51.4442 38.2291 51.4169 38.2524C51.4537 38.2236 51.4906 38.1948 51.5274 38.166C51.4933 38.1921 51.4592 38.2126 51.4196 38.2305C51.4633 38.2126 51.5069 38.1934 51.5506 38.1756C51.5097 38.1921 51.4701 38.203 51.4264 38.2085C51.4742 38.2017 51.5233 38.1948 51.5711 38.1893C51.5533 38.1921 51.5342 38.1934 51.5151 38.1934C51.3732 38.1962 51.2299 38.2524 51.1289 38.3539C51.0348 38.4486 50.9624 38.605 50.9693 38.7422C50.9829 39.0344 51.2094 39.2978 51.5151 39.2909C51.7826 39.2854 52.0391 39.1853 52.2288 38.9932C52.4144 38.8067 52.5127 38.557 52.5236 38.2949C52.525 38.2497 52.5236 38.2058 52.5236 38.1605C52.5236 37.8944 52.5236 37.6268 52.5236 37.3607C52.5236 36.602 52.5236 35.8434 52.5236 35.0847C52.5236 34.9023 52.5263 34.7198 52.5236 34.5374C52.5181 34.1642 52.3148 33.787 51.9695 33.6264C51.8167 33.5551 51.6789 33.5167 51.5069 33.5153C51.4865 33.5153 51.4674 33.5153 51.4469 33.5153C50.8232 33.5153 50.1996 33.5153 49.576 33.5153C48.9892 33.5153 48.4024 33.5153 47.8169 33.5153C47.5413 33.5153 47.2711 33.6141 47.0746 33.813C46.8767 34.0119 46.7784 34.2822 46.7784 34.5621C46.7784 34.7761 46.7784 34.9915 46.7784 35.2055C46.7784 35.9669 46.7784 36.7283 46.7784 37.4897C46.7784 37.7297 46.7784 37.9698 46.7784 38.2113C46.7784 38.2305 46.7784 38.2497 46.7784 38.2702C46.7798 38.4417 46.8194 38.583 46.889 38.7353C47.0486 39.0824 47.4239 39.2868 47.7951 39.2923C48.341 39.2992 48.8868 39.2923 49.4327 39.2923C50.0877 39.2923 50.7441 39.2923 51.3991 39.2923C51.4373 39.2923 51.4755 39.2923 51.5138 39.2923C51.799 39.2923 52.0733 39.0399 52.0596 38.7435C52.0487 38.4445 51.8222 38.1934 51.5151 38.1934ZM51.5151 40.5119C51.0157 40.5119 50.5176 40.5119 50.0181 40.5119C49.3331 40.5119 48.648 40.5119 47.963 40.5119C47.907 40.5119 47.8511 40.5105 47.7951 40.5119C47.353 40.5188 46.9818 40.7931 46.833 41.2088C46.758 41.4173 46.7798 41.667 46.7798 41.8865C46.7798 42.6218 46.7798 43.3558 46.7798 44.0911C46.7798 44.4039 46.7798 44.7153 46.7798 45.0281C46.7798 45.1008 46.7798 45.1749 46.7798 45.2476C46.7798 45.533 46.8863 45.8224 47.1019 46.0159C47.3052 46.1983 47.5522 46.2889 47.8238 46.2889C47.9043 46.2889 47.9834 46.2889 48.0639 46.2889C48.3792 46.2889 48.6958 46.2889 49.011 46.2889C49.737 46.2889 50.4616 46.2889 51.1876 46.2889C51.2763 46.2889 51.3664 46.2889 51.4551 46.2889C51.6489 46.2889 51.8303 46.2532 52.005 46.1613C52.3312 45.9912 52.5236 45.6263 52.5263 45.2641C52.5263 45.201 52.5263 45.1392 52.5263 45.0761C52.5263 44.382 52.5263 43.6864 52.5263 42.9923C52.5263 42.6452 52.5263 42.2995 52.5263 41.9524C52.5263 41.7932 52.5372 41.6286 52.5222 41.4695C52.5004 41.217 52.4062 40.9715 52.2165 40.7959C52.0228 40.6162 51.7812 40.5174 51.5151 40.5119C51.2299 40.5064 50.9556 40.7684 50.9693 41.0606C50.9829 41.3625 51.2094 41.6025 51.5151 41.6094C51.5342 41.6094 51.5533 41.6108 51.5724 41.6135C51.5247 41.6067 51.4755 41.5998 51.4278 41.5943C51.4714 41.6012 51.511 41.6108 51.552 41.6272C51.5083 41.6094 51.4646 41.5902 51.421 41.5724C51.4592 41.5902 51.4946 41.6108 51.5288 41.6368C51.4919 41.608 51.4551 41.5792 51.4182 41.5504C51.4455 41.5737 51.4701 41.5984 51.4933 41.6259C51.4646 41.5888 51.436 41.5518 51.4073 41.5147C51.4332 41.549 51.4537 41.5833 51.4714 41.6231C51.4537 41.5792 51.4346 41.5353 51.4169 41.4914C51.4332 41.5326 51.4442 41.5724 51.4496 41.6163C51.4428 41.5682 51.436 41.5189 51.4305 41.4708C51.4442 41.6067 51.4346 41.7466 51.4346 41.8824C51.4346 42.1842 51.4346 42.486 51.4346 42.7865C51.4346 43.4669 51.4346 44.1487 51.4346 44.8292C51.4346 44.9938 51.4482 45.1653 51.4305 45.3299C51.4373 45.2819 51.4442 45.2325 51.4496 45.1845C51.4428 45.2284 51.4332 45.2682 51.4169 45.3094C51.4346 45.2655 51.4537 45.2216 51.4714 45.1777C51.4537 45.2161 51.4332 45.2517 51.4073 45.286C51.436 45.249 51.4646 45.212 51.4933 45.1749C51.4701 45.2023 51.4455 45.227 51.4182 45.2504C51.4551 45.2216 51.4919 45.1927 51.5288 45.1639C51.4946 45.19 51.4605 45.2106 51.421 45.2284C51.4646 45.2106 51.5083 45.1914 51.552 45.1735C51.511 45.19 51.4714 45.201 51.4278 45.2065C51.4755 45.1996 51.5247 45.1927 51.5724 45.1873C51.4373 45.201 51.2981 45.1914 51.163 45.1914C50.8628 45.1914 50.5626 45.1914 50.2637 45.1914C49.5869 45.1914 48.9087 45.1914 48.2318 45.1914C48.068 45.1914 47.8975 45.2051 47.7337 45.1873C47.7815 45.1941 47.8306 45.201 47.8783 45.2065C47.8347 45.1996 47.7951 45.19 47.7542 45.1735C47.7978 45.1914 47.8415 45.2106 47.8852 45.2284C47.847 45.2106 47.8115 45.19 47.7774 45.1639C47.8142 45.1927 47.8511 45.2216 47.8879 45.2504C47.8606 45.227 47.836 45.2023 47.8128 45.1749C47.8415 45.212 47.8702 45.249 47.8988 45.286C47.8729 45.2517 47.8524 45.2174 47.8347 45.1777C47.8524 45.2216 47.8715 45.2655 47.8893 45.3094C47.8729 45.2682 47.862 45.2284 47.8565 45.1845C47.8633 45.2325 47.8702 45.2819 47.8756 45.3299C47.862 45.1941 47.8715 45.0542 47.8715 44.9184C47.8715 44.6166 47.8715 44.3147 47.8715 44.0143C47.8715 43.3339 47.8715 42.652 47.8715 41.9716C47.8715 41.807 47.8579 41.6355 47.8756 41.4708C47.8688 41.5189 47.862 41.5682 47.8565 41.6163C47.8633 41.5724 47.8729 41.5326 47.8893 41.4914C47.8715 41.5353 47.8524 41.5792 47.8347 41.6231C47.8524 41.5847 47.8729 41.549 47.8988 41.5147C47.8702 41.5518 47.8415 41.5888 47.8128 41.6259C47.836 41.5984 47.8606 41.5737 47.8879 41.5504C47.8511 41.5792 47.8142 41.608 47.7774 41.6368C47.8115 41.6108 47.8456 41.5902 47.8852 41.5724C47.8415 41.5902 47.7978 41.6094 47.7542 41.6272C47.7951 41.6108 47.8347 41.5998 47.8783 41.5943C47.8306 41.6012 47.7815 41.608 47.7337 41.6135C47.8688 41.5998 48.008 41.6094 48.1431 41.6094C48.4365 41.6094 48.7299 41.6094 49.0233 41.6094C49.6974 41.6094 50.3715 41.6094 51.047 41.6094C51.204 41.6094 51.3595 41.6094 51.5165 41.6094C51.8017 41.6094 52.076 41.357 52.0623 41.0606C52.0487 40.763 51.8222 40.5119 51.5151 40.5119ZM53.9633 35.687C54.1516 35.687 54.3386 35.687 54.5269 35.687C54.9772 35.687 55.4289 35.687 55.8792 35.687C56.4224 35.687 56.9655 35.687 57.5086 35.687C57.9808 35.687 58.4516 35.687 58.9238 35.687C59.153 35.687 59.3823 35.6911 59.6115 35.687C59.6143 35.687 59.6184 35.687 59.6211 35.687C59.9063 35.687 60.1806 35.4346 60.1669 35.1383C60.1533 34.8406 59.9268 34.5895 59.6211 34.5895C59.4328 34.5895 59.2458 34.5895 59.0575 34.5895C58.6072 34.5895 58.1555 34.5895 57.7051 34.5895C57.162 34.5895 56.6189 34.5895 56.0758 34.5895C55.6036 34.5895 55.1328 34.5895 54.6606 34.5895C54.4314 34.5895 54.2021 34.5854 53.9728 34.5895C53.9701 34.5895 53.966 34.5895 53.9633 34.5895C53.6781 34.5895 53.4038 34.8419 53.4174 35.1383C53.4297 35.4346 53.6576 35.687 53.9633 35.687ZM57.4786 37.1192C57.0829 37.1192 56.6871 37.1192 56.29 37.1192C55.6582 37.1192 55.0277 37.1192 54.3959 37.1192C54.2512 37.1192 54.1066 37.1192 53.9619 37.1192C53.6767 37.1192 53.4024 37.3717 53.4161 37.668C53.4297 37.9657 53.6562 38.2167 53.9619 38.2167C54.3577 38.2167 54.7534 38.2167 55.1505 38.2167C55.7824 38.2167 56.4128 38.2167 57.0446 38.2167C57.1893 38.2167 57.334 38.2167 57.4786 38.2167C57.7638 38.2167 58.0381 37.9643 58.0245 37.668C58.0122 37.3703 57.7856 37.1192 57.4786 37.1192ZM53.9633 42.6836C54.1516 42.6836 54.3386 42.6836 54.5269 42.6836C54.9772 42.6836 55.4289 42.6836 55.8792 42.6836C56.4224 42.6836 56.9655 42.6836 57.5086 42.6836C57.9808 42.6836 58.4516 42.6836 58.9238 42.6836C59.153 42.6836 59.3823 42.6877 59.6115 42.6836C59.6143 42.6836 59.6184 42.6836 59.6211 42.6836C59.9063 42.6836 60.1806 42.4312 60.1669 42.1348C60.1533 41.8371 59.9268 41.5861 59.6211 41.5861C59.4328 41.5861 59.2458 41.5861 59.0575 41.5861C58.6072 41.5861 58.1555 41.5861 57.7051 41.5861C57.162 41.5861 56.6189 41.5861 56.0758 41.5861C55.6036 41.5861 55.1328 41.5861 54.6606 41.5861C54.4314 41.5861 54.2021 41.582 53.9728 41.5861C53.9701 41.5861 53.966 41.5861 53.9633 41.5861C53.6781 41.5861 53.4038 41.8385 53.4174 42.1348C53.4297 42.4325 53.6576 42.6836 53.9633 42.6836ZM57.4786 44.1158C57.0829 44.1158 56.6871 44.1158 56.29 44.1158C55.6582 44.1158 55.0277 44.1158 54.3959 44.1158C54.2512 44.1158 54.1066 44.1158 53.9619 44.1158C53.6767 44.1158 53.4024 44.3682 53.4161 44.6646C53.4297 44.9623 53.6562 45.2133 53.9619 45.2133C54.3577 45.2133 54.7534 45.2133 55.1505 45.2133C55.7824 45.2133 56.4128 45.2133 57.0446 45.2133C57.1893 45.2133 57.334 45.2133 57.4786 45.2133C57.7638 45.2133 58.0381 44.9609 58.0245 44.6646C58.0122 44.3682 57.7856 44.1158 57.4786 44.1158Z" fill="#6F96AA"/>
</g>
</g>
<defs>
<filter id="filter0_d_351_3316" x="17.0928" y="14.0296" width="72.7617" height="72.9717" filterUnits="userSpaceOnUse" color-interpolation-filters="sRGB">
<feFlood flood-opacity="0" result="BackgroundImageFix"/>
<feColorMatrix in="SourceAlpha" type="matrix" values="0 0 0 0 0 0 0 0 0 0 0 0 0 0 0 0 0 0 127 0" result="hardAlpha"/>
<feOffset dy="10.6141"/>
<feGaussianBlur stdDeviation="8.29224"/>
<feColorMatrix type="matrix" values="0 0 0 0 0.305882 0 0 0 0 0.490196 0 0 0 0 0.588235 0 0 0 0.1 0"/>
<feBlend mode="normal" in2="BackgroundImageFix" result="effect1_dropShadow_351_3316"/>
<feBlend mode="normal" in="SourceGraphic" in2="effect1_dropShadow_351_3316" result="shape"/>
</filter>
<filter id="filter1_d_351_3316" x="0.508286" y="0.0986242" width="105.931" height="106.141" filterUnits="userSpaceOnUse" color-interpolation-filters="sRGB">
<feFlood flood-opacity="0" result="BackgroundImageFix"/>
<feColorMatrix in="SourceAlpha" type="matrix" values="0 0 0 0 0 0 0 0 0 0 0 0 0 0 0 0 0 0 127 0" result="hardAlpha"/>
<feOffset dy="13.2676"/>
<feGaussianBlur stdDeviation="16.5845"/>
<feColorMatrix type="matrix" values="0 0 0 0 0.74902 0 0 0 0 0.0823529 0 0 0 0 0.423529 0 0 0 0.05 0"/>
<feBlend mode="normal" in2="BackgroundImageFix" result="effect1_dropShadow_351_3316"/>
<feBlend mode="normal" in="SourceGraphic" in2="effect1_dropShadow_351_3316" result="shape"/>
</filter>
<clipPath id="clip0_351_3316">
<rect x="46.4863" y="32.8774" width="13.9739" height="14.048" fill="white"/>
</clipPath>
</defs>
</svg>
