    <svg width="33" height="33" viewBox="0 0 33 33" fill="none" xmlns="http://www.w3.org/2000/svg">
<rect x="0.559839" y="0.870935" width="31.1788" height="31.1788" rx="2.98521" stroke="#E3EBF1" stroke-width="0.663379"/>
<path d="M24.1098 11.056C24.1148 10.9972 24.1148 10.938 24.1098 10.8791L24.0302 10.7111C24.0302 10.7111 24.0302 10.6492 23.986 10.6226L23.9418 10.5784L23.8002 10.4634C23.7615 10.4241 23.7167 10.3912 23.6676 10.3661L23.5172 10.313H23.3403H9.01131H8.83441L8.68404 10.375C8.63473 10.396 8.58974 10.426 8.55137 10.4634L8.40985 10.5784C8.40985 10.5784 8.40985 10.5784 8.40985 10.6226C8.40985 10.6669 8.40985 10.6845 8.36562 10.7111L8.28602 10.8791C8.28101 10.938 8.28101 10.9972 8.28602 11.056L8.18872 11.1533V21.7674C8.18872 22.002 8.28191 22.227 8.44779 22.3928C8.61366 22.5587 8.83864 22.6519 9.07323 22.6519H17.0338C17.2684 22.6519 17.4933 22.5587 17.6592 22.3928C17.8251 22.227 17.9183 22.002 17.9183 21.7674C17.9183 21.5328 17.8251 21.3078 17.6592 21.142C17.4933 20.9761 17.2684 20.8829 17.0338 20.8829H9.95773V12.9223L15.6186 17.168C15.7717 17.2828 15.9579 17.3449 16.1493 17.3449C16.3407 17.3449 16.5269 17.2828 16.68 17.168L22.3408 12.9223V20.8829H20.5718C20.3372 20.8829 20.1122 20.9761 19.9464 21.142C19.7805 21.3078 19.6873 21.5328 19.6873 21.7674C19.6873 22.002 19.7805 22.227 19.9464 22.3928C20.1122 22.5587 20.3372 22.6519 20.5718 22.6519H23.2253C23.4599 22.6519 23.6849 22.5587 23.8508 22.3928C24.0166 22.227 24.1098 22.002 24.1098 21.7674V11.1533C24.1098 11.1533 24.1098 11.0914 24.1098 11.056ZM16.1493 15.3547L11.7267 12.0378H20.5718L16.1493 15.3547Z" fill="url(#paint0_linear_351_2917)"/>
<defs>
<linearGradient id="paint0_linear_351_2917" x1="24.1136" y1="15.6683" x2="8.22624" y2="14.8414" gradientUnits="userSpaceOnUse">
<stop stop-color="#1636FF"/>
<stop offset="1" stop-color="#0FABFF"/>
</linearGradient>
</defs>
</svg>
