<svg width="24" height="24" viewBox="0 0 24 24" fill="none" xmlns="http://www.w3.org/2000/svg">
<path d="M12.4986 6C11.7786 6 11.1886 6.59 11.1886 7.31C11.1886 8.03 11.7786 8.62 12.4986 8.62C13.2186 8.62 13.8086 8.03 13.8086 7.31C13.8086 6.59 13.2186 6 12.4986 6Z" fill="#939393"/>
<path d="M12.4986 11C11.7786 11 11.1886 11.59 11.1886 12.31C11.1886 13.03 11.7786 13.62 12.4986 13.62C13.2186 13.62 13.8086 13.03 13.8086 12.31C13.8086 11.59 13.2186 11 12.4986 11Z" fill="#939393"/>
<path d="M12.4986 16C11.7786 16 11.1886 16.59 11.1886 17.31C11.1886 18.03 11.7786 18.62 12.4986 18.62C13.2186 18.62 13.8086 18.03 13.8086 17.31C13.8086 16.59 13.2186 16 12.4986 16Z" fill="#939393"/>
</svg>
