<svg width="18" height="18" viewBox="0 0 18 18" fill="none" xmlns="http://www.w3.org/2000/svg">
<path d="M15.7502 5.04748C15.7352 5.04748 15.7127 5.04748 15.6902 5.04748C11.7227 4.64998 7.76265 4.49998 3.84015 4.89748L2.31015 5.04748C1.99515 5.07748 1.71765 4.85248 1.68765 4.53748C1.65765 4.22248 1.88265 3.95248 2.19015 3.92248L3.72015 3.77248C7.71015 3.36748 11.7527 3.52498 15.8027 3.92248C16.1102 3.95248 16.3352 4.22998 16.3052 4.53748C16.2827 4.82998 16.0352 5.04748 15.7502 5.04748Z" fill="#939393"/>
<path d="M6.37516 4.29C6.34516 4.29 6.31516 4.29 6.27766 4.2825C5.97766 4.23 5.76766 3.9375 5.82016 3.6375L5.98516 2.655C6.10516 1.935 6.27016 0.9375 8.01766 0.9375H9.98266C11.7377 0.9375 11.9027 1.9725 12.0152 2.6625L12.1802 3.6375C12.2327 3.945 12.0227 4.2375 11.7227 4.2825C11.4152 4.335 11.1227 4.125 11.0777 3.825L10.9127 2.85C10.8077 2.1975 10.7852 2.07 9.99016 2.07H8.02516C7.23016 2.07 7.21516 2.175 7.10266 2.8425L6.93016 3.8175C6.88516 4.095 6.64516 4.29 6.37516 4.29Z" fill="#939393"/>
<path d="M11.4076 17.0625H6.59264C3.97514 17.0625 3.87014 15.615 3.78764 14.445L3.30014 6.8925C3.27764 6.585 3.51764 6.315 3.82514 6.2925C4.14014 6.2775 4.40264 6.51 4.42514 6.8175L4.91264 14.37C4.99514 15.51 5.02514 15.9375 6.59264 15.9375H11.4076C12.9826 15.9375 13.0126 15.51 13.0876 14.37L13.5751 6.8175C13.5976 6.51 13.8676 6.2775 14.1751 6.2925C14.4826 6.315 14.7226 6.5775 14.7001 6.8925L14.2126 14.445C14.1301 15.615 14.0251 17.0625 11.4076 17.0625Z" fill="#939393"/>
</svg>
