<svg width="18" height="18" viewBox="0 0 18 18" fill="none" xmlns="http://www.w3.org/2000/svg">
<path d="M9.00003 12.2475C7.20753 12.2475 5.75253 10.7925 5.75253 9C5.75253 7.2075 7.20753 5.7525 9.00003 5.7525C10.7925 5.7525 12.2475 7.2075 12.2475 9C12.2475 10.7925 10.7925 12.2475 9.00003 12.2475ZM9.00003 6.8775C7.83003 6.8775 6.87753 7.83 6.87753 9C6.87753 10.17 7.83003 11.1225 9.00003 11.1225C10.17 11.1225 11.1225 10.17 11.1225 9C11.1225 7.83 10.17 6.8775 9.00003 6.8775Z" fill="#939393"/>
<path d="M8.99997 15.765C6.17997 15.765 3.51747 14.115 1.68747 11.25C0.892467 10.0125 0.892467 7.99499 1.68747 6.74999C3.52497 3.88499 6.18747 2.23499 8.99997 2.23499C11.8125 2.23499 14.475 3.88499 16.305 6.74999C17.1 7.98749 17.1 10.005 16.305 11.25C14.475 14.115 11.8125 15.765 8.99997 15.765ZM8.99997 3.35999C6.57747 3.35999 4.25997 4.81499 2.63997 7.35749C2.07747 8.23499 2.07747 9.76498 2.63997 10.6425C4.25997 13.185 6.57747 14.64 8.99997 14.64C11.4225 14.64 13.74 13.185 15.36 10.6425C15.9225 9.76498 15.9225 8.23499 15.36 7.35749C13.74 4.81499 11.4225 3.35999 8.99997 3.35999Z" fill="#939393"/>
</svg>
