<svg width="60" height="60" viewBox="0 0 60 60" fill="none" xmlns="http://www.w3.org/2000/svg">
<rect width="60" height="60" rx="20" fill="url(#paint0_linear_321_2958)"/>
<path d="M44.7092 37.2652L31.1847 29.5421L48.8692 19.2507L49.4721 20.2973L33.6079 29.5301L45.3001 36.2126L44.7092 37.2652Z" fill="white"/>
<path d="M35.112 31.4909L34.5092 30.4383L40.2508 27.1001L48.159 28.9346L47.9024 30.1195L40.4478 28.3812L35.112 31.4909Z" fill="white"/>
<path d="M37.2129 32.8202L36.7413 32.0984L40.4716 29.6504L44.1124 30.721L43.8677 31.5511L40.6089 30.5947L37.2129 32.8202Z" fill="white"/>
<path d="M44.369 26.7031L40.1672 25.3498L40.4298 24.5257L44.2676 25.7588L47.5263 23.8641L47.9561 24.616L44.369 26.7031Z" fill="white"/>
<path d="M49.7944 20.6943C50.4602 20.6943 51 20.1503 51 19.4793C51 18.8083 50.4602 18.2643 49.7944 18.2643C49.1285 18.2643 48.5887 18.8083 48.5887 19.4793C48.5887 20.1503 49.1285 20.6943 49.7944 20.6943Z" fill="white"/>
<path d="M45.6224 38.3178C46.2883 38.3178 46.8281 37.7738 46.8281 37.1028C46.8281 36.4317 46.2883 35.8878 45.6224 35.8878C44.9566 35.8878 44.4168 36.4317 44.4168 37.1028C44.4168 37.7738 44.9566 38.3178 45.6224 38.3178Z" fill="white"/>
<path d="M44.2735 32.1766C44.7614 32.1766 45.1569 31.778 45.1569 31.2864C45.1569 30.7948 44.7614 30.3962 44.2735 30.3962C43.7857 30.3962 43.3902 30.7948 43.3902 31.2864C43.3902 31.778 43.7857 32.1766 44.2735 32.1766Z" fill="white"/>
<path d="M47.7412 25.1332C48.2291 25.1332 48.6245 24.7347 48.6245 24.243C48.6245 23.7514 48.2291 23.3528 47.7412 23.3528C47.2534 23.3528 46.8579 23.7514 46.8579 24.243C46.8579 24.7347 47.2534 25.1332 47.7412 25.1332Z" fill="white"/>
<path d="M47.9501 30.4323C48.5138 30.4323 48.9707 29.9718 48.9707 29.4038C48.9707 28.8357 48.5138 28.3752 47.9501 28.3752C47.3864 28.3752 46.9295 28.8357 46.9295 29.4038C46.9295 29.9718 47.3864 30.4323 47.9501 30.4323Z" fill="white"/>
<path d="M30.6774 46.2213L30.558 30.5526L48.2426 40.844L47.6397 41.8906L31.7756 32.6638L31.883 46.2092L30.6774 46.2213Z" fill="white"/>
<path d="M30.8445 34.9555L31.4473 33.9029L37.189 37.2471L39.5644 45.0664L38.4185 45.4333L36.1803 38.0591L30.8445 34.9555Z" fill="white"/>
<path d="M35.1657 42.6364L34.3659 39.3042L30.749 37.4576L31.137 36.6817L35.106 38.7147L36.0013 42.4259L35.1657 42.6364Z" fill="white"/>
<path d="M43.1753 42.7266L39.5823 40.6395L38.6513 36.2968L39.4868 36.1163L40.3463 40.0801L43.6051 41.9808L43.1753 42.7266Z" fill="white"/>
<path d="M48.5052 42.9793C49.171 42.9793 49.7108 42.4353 49.7108 41.7643C49.7108 41.0932 49.171 40.5493 48.5052 40.5493C47.8393 40.5493 47.2995 41.0932 47.2995 41.7643C47.2995 42.4353 47.8393 42.9793 48.5052 42.9793Z" fill="white"/>
<path d="M31.2743 48.152C31.9401 48.152 32.4799 47.6081 32.4799 46.937C32.4799 46.266 31.9401 45.722 31.2743 45.722C30.6084 45.722 30.0686 46.266 30.0686 46.937C30.0686 47.6081 30.6084 48.152 31.2743 48.152Z" fill="white"/>
<path d="M35.6014 43.7432C36.0893 43.7432 36.4847 43.3446 36.4847 42.853C36.4847 42.3613 36.0893 41.9628 35.6014 41.9628C35.1136 41.9628 34.7181 42.3613 34.7181 42.853C34.7181 43.3446 35.1136 43.7432 35.6014 43.7432Z" fill="white"/>
<path d="M43.3902 43.2439C43.8781 43.2439 44.2736 42.8454 44.2736 42.3537C44.2736 41.8621 43.8781 41.4635 43.3902 41.4635C42.9024 41.4635 42.5069 41.8621 42.5069 42.3537C42.5069 42.8454 42.9024 43.2439 43.3902 43.2439Z" fill="white"/>
<path d="M39.0571 46.1491C39.6208 46.1491 40.0777 45.6886 40.0777 45.1206C40.0777 44.5525 39.6208 44.092 39.0571 44.092C38.4935 44.092 38.0365 44.5525 38.0365 45.1206C38.0365 45.6886 38.4935 46.1491 39.0571 46.1491Z" fill="white"/>
<path d="M29.3703 51.0933H28.1707V32.6337L16.5799 39.4967L15.9711 38.4501L29.3703 30.5165V51.0933Z" fill="white"/>
<path d="M25.7355 32.9646H26.9352V39.647L21.4084 45.6318L20.5131 44.8138L25.7355 39.1779V32.9646Z" fill="white"/>
<path d="M21.8918 41.2049L21.295 40.5793L23.754 38.2095L23.5391 34.1314L24.3986 34.0833L24.6314 38.5644L21.8918 41.2049Z" fill="white"/>
<path d="M26.0757 47.6167H25.2163V43.4364L28.481 40.447L29.06 41.0906L26.0757 43.8213V47.6167Z" fill="white"/>
<path d="M28.7138 53C29.3796 53 29.9194 52.456 29.9194 51.785C29.9194 51.114 29.3796 50.57 28.7138 50.57C28.0479 50.57 27.5082 51.114 27.5082 51.785C27.5082 52.456 28.0479 53 28.7138 53Z" fill="white"/>
<path d="M15.6548 40.5493C16.3207 40.5493 16.8605 40.0053 16.8605 39.3343C16.8605 38.6632 16.3207 38.1193 15.6548 38.1193C14.989 38.1193 14.4492 38.6632 14.4492 39.3343C14.4492 40.0053 14.989 40.5493 15.6548 40.5493Z" fill="white"/>
<path d="M21.3248 41.9567C21.8127 41.9567 22.2082 41.5582 22.2082 41.0665C22.2082 40.5749 21.8127 40.1764 21.3248 40.1764C20.837 40.1764 20.4415 40.5749 20.4415 41.0665C20.4415 41.5582 20.837 41.9567 21.3248 41.9567Z" fill="white"/>
<path d="M25.646 48.5009C26.1338 48.5009 26.5293 48.1023 26.5293 47.6107C26.5293 47.1191 26.1338 46.7205 25.646 46.7205C25.1581 46.7205 24.7627 47.1191 24.7627 47.6107C24.7627 48.1023 25.1581 48.5009 25.646 48.5009Z" fill="white"/>
<path d="M21.104 46.2453C21.6677 46.2453 22.1246 45.7848 22.1246 45.2168C22.1246 44.6487 21.6677 44.1882 21.104 44.1882C20.5404 44.1882 20.0834 44.6487 20.0834 45.2168C20.0834 45.7848 20.5404 46.2453 21.104 46.2453Z" fill="white"/>
<path d="M11.1307 39.7493L10.5279 38.6967L26.3921 29.4699L14.6939 22.7874L15.2907 21.7288L28.8153 29.4579L11.1307 39.7493Z" fill="white"/>
<path d="M24.888 27.5091L25.4908 28.5617L19.7492 31.8999L11.841 30.0654L12.0976 28.8805L19.5463 30.6128L24.888 27.5091Z" fill="white"/>
<path d="M19.5283 29.3496L15.8876 28.273L16.1263 27.4429L19.3911 28.4053L22.7871 26.1738L23.2586 26.9016L19.5283 29.3496Z" fill="white"/>
<path d="M12.4737 35.1359L12.038 34.384L15.631 32.2969L19.8268 33.6502L19.5701 34.4743L15.7324 33.2352L12.4737 35.1359Z" fill="white"/>
<path d="M10.2056 40.7357C10.8715 40.7357 11.4113 40.1917 11.4113 39.5207C11.4113 38.8497 10.8715 38.3057 10.2056 38.3057C9.53978 38.3057 9 38.8497 9 39.5207C9 40.1917 9.53978 40.7357 10.2056 40.7357Z" fill="white"/>
<path d="M14.3776 23.1122C15.0434 23.1122 15.5832 22.5683 15.5832 21.8972C15.5832 21.2262 15.0434 20.6822 14.3776 20.6822C13.7117 20.6822 13.1719 21.2262 13.1719 21.8972C13.1719 22.5683 13.7117 23.1122 14.3776 23.1122Z" fill="white"/>
<path d="M15.7264 28.6038C16.2143 28.6038 16.6098 28.2052 16.6098 27.7136C16.6098 27.2219 16.2143 26.8234 15.7264 26.8234C15.2386 26.8234 14.8431 27.2219 14.8431 27.7136C14.8431 28.2052 15.2386 28.6038 15.7264 28.6038Z" fill="white"/>
<path d="M12.2588 35.6472C12.7466 35.6472 13.1421 35.2486 13.1421 34.757C13.1421 34.2653 12.7466 33.8668 12.2588 33.8668C11.7709 33.8668 11.3754 34.2653 11.3754 34.757C11.3754 35.2486 11.7709 35.6472 12.2588 35.6472Z" fill="white"/>
<path d="M12.0439 30.6188C12.6076 30.6188 13.0645 30.1583 13.0645 29.5902C13.0645 29.0222 12.6076 28.5617 12.0439 28.5617C11.4803 28.5617 11.0233 29.0222 11.0233 29.5902C11.0233 30.1583 11.4803 30.6188 12.0439 30.6188Z" fill="white"/>
<path d="M29.4419 28.4414L11.7574 18.156L12.3602 17.1034L28.2184 26.3362L28.1169 12.7847L29.3226 12.7787L29.4419 28.4414Z" fill="white"/>
<path d="M29.1554 24.0445L28.5526 25.0911L22.811 21.7529L20.4355 13.9336L21.5815 13.5667L23.8137 20.9348L29.1554 24.0445Z" fill="white"/>
<path d="M28.857 22.3183L24.894 20.2853L23.9927 16.5681L24.8283 16.3636L25.6341 19.6958L29.251 21.5424L28.857 22.3183Z" fill="white"/>
<path d="M20.5072 22.8837L19.6537 18.9139L16.3949 17.0192L16.8246 16.2673L20.4117 18.3545L21.3487 22.6972L20.5072 22.8837Z" fill="white"/>
<path d="M11.4889 18.4507C12.1547 18.4507 12.6945 17.9068 12.6945 17.2357C12.6945 16.5647 12.1547 16.0207 11.4889 16.0207C10.823 16.0207 10.2832 16.5647 10.2832 17.2357C10.2832 17.9068 10.823 18.4507 11.4889 18.4507Z" fill="white"/>
<path d="M28.7198 13.278C29.3856 13.278 29.9254 12.734 29.9254 12.063C29.9254 11.3919 29.3856 10.848 28.7198 10.848C28.0539 10.848 27.5141 11.3919 27.5141 12.063C27.5141 12.734 28.0539 13.278 28.7198 13.278Z" fill="white"/>
<path d="M24.3986 17.0372C24.8865 17.0372 25.2819 16.6387 25.2819 16.1471C25.2819 15.6554 24.8865 15.2569 24.3986 15.2569C23.9108 15.2569 23.5153 15.6554 23.5153 16.1471C23.5153 16.6387 23.9108 17.0372 24.3986 17.0372Z" fill="white"/>
<path d="M16.6098 17.5365C17.0976 17.5365 17.4931 17.1379 17.4931 16.6463C17.4931 16.1546 17.0976 15.7561 16.6098 15.7561C16.1219 15.7561 15.7265 16.1546 15.7265 16.6463C15.7265 17.1379 16.1219 17.5365 16.6098 17.5365Z" fill="white"/>
<path d="M20.9429 14.908C21.5065 14.908 21.9635 14.4475 21.9635 13.8795C21.9635 13.3114 21.5065 12.8509 20.9429 12.8509C20.3792 12.8509 19.9223 13.3114 19.9223 13.8795C19.9223 14.4475 20.3792 14.908 20.9429 14.908Z" fill="white"/>
<path d="M30.6237 28.4835V7.90671H31.8293V26.3663L43.42 19.5033L44.0288 20.5439L30.6237 28.4835Z" fill="white"/>
<path d="M34.2645 26.0354H33.0588V19.353L38.5916 13.3682L39.4809 14.1862L34.2645 19.8221V26.0354Z" fill="white"/>
<path d="M35.6014 24.9107L35.3626 20.4356L38.1081 17.7951L38.699 18.4206L36.246 20.7845L36.4608 24.8686L35.6014 24.9107Z" fill="white"/>
<path d="M31.519 18.547L30.94 17.9094L33.9183 15.1787V11.3833H34.7837V15.5636L31.519 18.547Z" fill="white"/>
<path d="M31.2862 8.43C31.952 8.43 32.4918 7.88602 32.4918 7.215C32.4918 6.54397 31.952 6 31.2862 6C30.6204 6 30.0806 6.54397 30.0806 7.215C30.0806 7.88602 30.6204 8.43 31.2862 8.43Z" fill="white"/>
<path d="M44.3452 20.8807C45.011 20.8807 45.5508 20.3368 45.5508 19.6657C45.5508 18.9947 45.011 18.4507 44.3452 18.4507C43.6793 18.4507 43.1395 18.9947 43.1395 19.6657C43.1395 20.3368 43.6793 20.8807 44.3452 20.8807Z" fill="white"/>
<path d="M38.6692 18.8236C39.157 18.8236 39.5525 18.4251 39.5525 17.9334C39.5525 17.4418 39.157 17.0432 38.6692 17.0432C38.1813 17.0432 37.7858 17.4418 37.7858 17.9334C37.7858 18.4251 38.1813 18.8236 38.6692 18.8236Z" fill="white"/>
<path d="M34.348 12.2735C34.8359 12.2735 35.2313 11.8749 35.2313 11.3833C35.2313 10.8916 34.8359 10.4931 34.348 10.4931C33.8602 10.4931 33.4647 10.8916 33.4647 11.3833C33.4647 11.8749 33.8602 12.2735 34.348 12.2735Z" fill="white"/>
<path d="M38.896 14.8118C39.4596 14.8118 39.9166 14.3513 39.9166 13.7832C39.9166 13.2152 39.4596 12.7547 38.896 12.7547C38.3323 12.7547 37.8754 13.2152 37.8754 13.7832C37.8754 14.3513 38.3323 14.8118 38.896 14.8118Z" fill="white"/>
<defs>
<linearGradient id="paint0_linear_321_2958" x1="-81.6" y1="91.9286" x2="101.395" y2="-19.8945" gradientUnits="userSpaceOnUse">
<stop offset="0.52" stop-color="#0DD8FF"/>
<stop offset="0.58" stop-color="#0FABFF"/>
<stop offset="0.7" stop-color="#1457FF"/>
<stop offset="0.75" stop-color="#1636FF"/>
<stop offset="1" stop-color="#0E69C7"/>
</linearGradient>
</defs>
</svg>
